<svg width="225" height="225" viewBox="0 0 225 225" xmlns="http://www.w3.org/2000/svg"><title>logo/algolia/mark</title><desc>Created with Sketch.</desc><defs><linearGradient x1="-37.75%" y1="134.936%" x2="130.239%" y2="-27.703%" id="a"><stop stop-color="#00AEFF" offset="0%"/><stop stop-color="#3369E7" offset="100%"/></linearGradient></defs><g fill="none"><path d="M29.627 0h165.746c16.315 0 29.627 13.239 29.627 29.618v165.764c0 16.31-13.243 29.618-29.627 29.618h-165.746c-16.315 0-29.627-13.239-29.627-29.618v-165.833c0-16.31 13.243-29.55 29.627-29.55z" fill="url(#a)"/><path d="M115.739 57.402c-35.201 0-63.759 28.598-63.759 63.917s28.558 63.848 63.759 63.848 63.759-28.598 63.759-63.917-28.49-63.848-63.759-63.848zm0 108.905c-24.792 0-44.926-20.163-44.926-44.989 0-24.826 20.135-44.989 44.926-44.989 24.792 0 44.926 20.163 44.926 44.989 0 24.826-20.066 44.989-44.926 44.989zm0-80.787v33.536c0 .96 1.027 1.646 1.918 1.166l29.722-15.431c.685-.343.89-1.166.548-1.852-6.164-10.836-17.601-18.242-30.818-18.722-.685 0-1.37.549-1.37 1.303zm-41.639-24.62l-3.904-3.909c-3.835-3.84-9.999-3.84-13.834 0l-4.657 4.663c-3.835 3.84-3.835 10.013 0 13.853l3.835 3.84c.616.617 1.507.48 2.055-.137 2.26-3.086 4.725-6.035 7.465-8.778 2.808-2.812 5.684-5.281 8.835-7.544.685-.411.753-1.372.205-1.989zm62.527-10.15v-7.75c0-5.418-4.383-9.807-9.793-9.807h-22.805c-5.41 0-9.793 4.389-9.793 9.807v7.955c0 .892.822 1.509 1.712 1.303 6.369-1.852 13.081-2.812 19.861-2.812 6.506 0 12.944.892 19.176 2.606.822.206 1.644-.411 1.644-1.303z" fill="#fff"/></g></svg>