<svg xmlns="http://www.w3.org/2000/svg" xmlns:xlink="http://www.w3.org/1999/xlink" viewBox="0 0 368.48 385.47"><defs><style>.cls-1{fill:url(#linear-gradient);}.cls-2{fill:url(#linear-gradient-2);}.cls-3{fill:url(#linear-gradient-3);}.cls-4{fill:url(#linear-gradient-4);}.cls-5{fill:url(#linear-gradient-5);}.cls-6{fill:#fbfbfd;}</style><linearGradient id="linear-gradient" y1="119.21" x2="25" y2="119.21" gradientUnits="userSpaceOnUse"><stop offset="0" stop-color="#827fda"/><stop offset="1" stop-color="#625eab"/></linearGradient><linearGradient id="linear-gradient-2" x1="165.26" y1="264.4" x2="213.29" y2="92.52" gradientUnits="userSpaceOnUse"><stop offset="0" stop-color="#ffc160"/><stop offset="1" stop-color="#ff4980"/></linearGradient><linearGradient id="linear-gradient-3" x1="25" y1="127.68" x2="95.64" y2="127.68" gradientUnits="userSpaceOnUse"><stop offset="0" stop-color="#4a4292"/><stop offset="1" stop-color="#342b5a"/></linearGradient><linearGradient id="linear-gradient-4" x1="147.18" y1="219.16" x2="312.87" y2="219.16" xlink:href="#linear-gradient"/><linearGradient id="linear-gradient-5" x1="276.36" y1="339.41" x2="368.48" y2="339.41" gradientUnits="userSpaceOnUse"><stop offset="0" stop-color="#e0dfff"/><stop offset="1" stop-color="#a6a2f6"/></linearGradient></defs><title>Elisabeth</title><g id="Layer_2" data-name="Layer 2"><g id="Layer_1-2" data-name="Layer 1"><polygon class="cls-1" points="25 106.72 0 131.71 25 131.71 25 106.72"/><path class="cls-2" d="M166.56,145.9a133.79,133.79,0,0,1-39.19-94.6V0L72.28,57.43l2.9-2.9h0a69.84,69.84,0,0,1,0,98.77L27.64,200.83a116.11,116.11,0,0,0,113.43,91.38h171.8Z"/><path class="cls-3" d="M75.18,54.53h0l-2.9,2.9L25,106.71v69.43a116.49,116.49,0,0,0,2.64,24.69l47.54-47.54A69.84,69.84,0,0,0,75.18,54.53Z"/><path class="cls-4" d="M166.76,146.11C131,181.9,146.48,242.94,195,257.32l117.86,34.9L166.76,146.11Z"/><polygon class="cls-5" points="312.87 293.48 276.36 293.35 368.48 385.46 368.48 349.09 312.87 293.48"/><circle class="cls-6" cx="60.32" cy="106.71" r="11.48"/></g></g></svg>
