<?xml version="1.0" encoding="UTF-8"?>
<svg width="373px" height="267px" viewBox="0 0 373 267" version="1.1" xmlns="http://www.w3.org/2000/svg" xmlns:xlink="http://www.w3.org/1999/xlink">
    <!-- Generator: Sketch 47.1 (45422) - http://www.bohemiancoding.com/sketch -->
    <title>georges</title>
    <desc>Created with Sketch.</desc>
    <defs>
        <linearGradient x1="-2.39159453e-14%" y1="50.0036604%" x2="100%" y2="50.0036604%" id="linearGradient-1">
            <stop stop-color="#4A4292" offset="0%"></stop>
            <stop stop-color="#342B5A" offset="100%"></stop>
        </linearGradient>
        <linearGradient x1="-0.0232883093%" y1="50%" x2="100%" y2="50%" id="linearGradient-2">
            <stop stop-color="#E0DFFF" offset="0%"></stop>
            <stop stop-color="#A6A2F6" offset="100%"></stop>
        </linearGradient>
        <linearGradient x1="0%" y1="49.9905592%" x2="100%" y2="49.9905592%" id="linearGradient-3">
            <stop stop-color="#827FDA" offset="0%"></stop>
            <stop stop-color="#625EAB" offset="100%"></stop>
        </linearGradient>
        <linearGradient x1="9703%" y1="23028%" x2="26864%" y2="23028%" id="linearGradient-4">
            <stop stop-color="#E0DFFF" offset="0%"></stop>
            <stop stop-color="#A6A2F6" offset="100%"></stop>
        </linearGradient>
        <linearGradient x1="49.9978259%" y1="91.9757165%" x2="49.9978259%" y2="6.1493351%" id="linearGradient-5">
            <stop stop-color="#00ABFF" offset="0%"></stop>
            <stop stop-color="#3463EA" offset="100%"></stop>
        </linearGradient>
        <linearGradient x1="0%" y1="14852%" x2="27295%" y2="14852%" id="linearGradient-6">
            <stop stop-color="#4A4292" offset="0%"></stop>
            <stop stop-color="#342B5A" offset="100%"></stop>
        </linearGradient>
    </defs>
    <g id="Page-1" stroke="none" stroke-width="1" fill="none" fill-rule="evenodd">
        <g id="georges" transform="translate(186.500000, 133.000000) scale(-1, 1) translate(-186.500000, -133.000000) translate(0.000000, -1.000000)" fill-rule="nonzero">
            <path d="M331.85,87.3 C335.601155,63.8013661 350.874753,43.744443 372.53,33.88 C343.384703,-1.67480405 292.098641,-9.48595945 253.69,15.78 C288.747375,27.3882084 317.183117,53.408222 331.85,87.3 L331.85,87.3 Z" id="Shape" fill="url(#linearGradient-1)"></path>
            <path d="M246.86,61.71 C243.01,54.79 240.39,49.44 240.33,46.47 L240.33,46.47 C240.33,46.47 240.33,46.4 240.33,46.36 C240.33,29.7 244.61,24.85 253.64,15.82 L253.64,15.82 C252.93,16.46 245.26,23.31 234.35,32.99 C228.35,38.3 221.35,44.45 214.06,50.89 C189.17,72.74 160.01,97.89 150.3,104.55 L150.3,104.55 C155.75,100.99 160.95,97.79 165.96,94.99 C176.836568,87.0633544 189.848237,82.5960381 203.3,82.17 C204.05,82.17 204.8,82.11 205.55,82.11 C208.34,82.11 211.01,82.25 213.55,82.48 C254.04,86.14 270.08,117.32 272.55,142.48 C272.55,142.56 272.55,142.65 272.55,142.73 C272.636667,143.65 272.706667,144.56 272.76,145.46 C272.76,145.74 272.76,146.03 272.76,146.31 C272.76,147.37 272.84,148.42 272.84,149.45 C272.713877,157.711241 271.017037,165.873044 267.84,173.5 C262.06,188 251.14,202 235.31,210 C245.124225,205.153012 253.616847,197.998621 260.06,189.15 C263.823718,184.530229 267.233402,179.632988 270.26,174.5 C277.26,162.44 279.12,152.5 279.12,141.66 C279.12,114.46 257.92,81.58 246.86,61.71 Z" id="Shape" fill="url(#linearGradient-2)"></path>
            <path d="M97,194.92 C89.430526,193.73158 81.7821112,193.116498 74.12,193.08 C37.07,193.07 0,205.71 0,205.71 C0,205.71 29.14,199.81 43.81,199.81 C74.81,199.81 105.81,226.16 141.67,246.01 C122.510166,233.245681 107.092534,215.612217 97,194.92 Z" id="Shape" fill="url(#linearGradient-3)"></path>
            <path d="M244.73,257.89 C178.83,257.89 166.28,212.12 110.96,197.51 C106.34,196.51 101.7,195.63 97.02,194.92 C107.108471,215.606107 122.518867,233.235738 141.67,246 C163.37,258 186.86,267.63 213.23,267.63 C214.296667,267.63 215.36,267.63 216.42,267.63 L217.57,267.63 L219.57,267.55 L220.93,267.47 L222.69,267.36 L224.04,267.25 L225.86,267.09 L227,266.97 L229.27,266.71 L229.87,266.64 C243.314541,264.912563 256.40026,261.064815 268.64,255.24 L268.36,255.24 C260.607652,257.006788 252.681126,257.895713 244.73,257.89 L244.73,257.89 Z" id="Shape" fill="url(#linearGradient-4)"></path>
            <path d="M342.38,137 C342.264726,124.191889 340.242543,111.472361 336.38,99.26 C335.08,95.18 333.59,91.18 331.91,87.26 C317.243117,53.368222 288.807375,27.3482084 253.75,15.74 L253.69,15.74 C244.69,24.74 240.38,29.62 240.38,46.28 C240.38,46.28 240.38,46.36 240.38,46.39 C240.44,49.39 243.06,54.71 246.91,61.63 C257.97,81.5 279.17,114.38 279.17,141.63 C279.17,152.45 277.28,162.41 270.31,174.47 C267.283402,179.602988 263.873718,184.500229 260.11,189.12 C253.65639,197.985814 245.145719,205.15125 235.31,210 C228.205128,213.584896 220.492617,215.809789 212.57,216.56 L211.85,216.62 C210.98,216.7 210.11,216.78 209.22,216.82 C208,216.89 206.78,216.92 205.55,216.92 C188.64,216.92 172.15,213.46 155.7,209.17 C140.85,205.3 126.03,200.77 110.97,197.5 C166.29,212.12 178.84,257.88 244.74,257.88 C252.688915,257.875122 260.612058,256.976137 268.36,255.2 L268.79,255.1 C313.793445,233.703663 342.449049,188.300822 342.4,138.47 C342.4,138 342.38,137.49 342.38,137 Z" id="Shape" fill="url(#linearGradient-5)"></path>
            <path d="M272.87,146.38 C272.87,146.1 272.87,145.81 272.87,145.53 C272.82,144.61 272.75,143.7 272.66,142.8 L272.66,142.55 C270.19,117.34 254.15,86.16 213.66,82.55 L213.66,82.67 C211.005287,82.3495153 208.333981,82.1858979 205.66,82.18 C204.91,82.18 204.16,82.18 203.41,82.24 C189.916516,82.6205679 176.852658,87.0681355 165.93,95 C160.93,97.8 155.72,101 150.27,104.56 L150.27,104.56 C131.74,116.66 110.41,132.84 84.72,151.04 C60.72,168.04 32.93,186.81 0.04,205.68 C0.04,205.68 37.11,193.04 74.18,193.04 C81.8230832,193.092746 89.4513339,193.721191 97,194.92 C101.67,195.63 106.32,196.51 110.94,197.51 C126,200.78 140.82,205.31 155.67,209.18 C172.12,213.46 188.61,216.93 205.52,216.93 C206.76,216.93 207.98,216.93 209.19,216.83 C210.07,216.83 210.95,216.71 211.82,216.63 L212.54,216.57 C220.460343,215.751674 228.171158,213.526814 235.31,210 C251.14,202 262.06,188 267.91,173.57 C271.087037,165.943044 272.783877,157.781241 272.91,149.52 C273,148.47 272.92,147.42 272.87,146.38 Z" id="Shape" fill="url(#linearGradient-6)"></path>
            <circle id="Oval" fill="#FFFFFF" cx="288.06" cy="56.17" r="11.48"></circle>
        </g>
    </g>
</svg>