<svg xmlns="http://www.w3.org/2000/svg" xmlns:xlink="http://www.w3.org/1999/xlink" viewBox="0 0 372.53 266.64"><defs><style>.cls-1{fill:url(#linear-gradient);}.cls-2{fill:url(#linear-gradient-2);}.cls-3{fill:url(#linear-gradient-3);}.cls-4{fill:url(#linear-gradient-4);}.cls-5{fill:url(#linear-gradient-5);}.cls-6{fill:url(#linear-gradient-6);}.cls-7{fill:#fff;}</style><linearGradient id="linear-gradient" x1="253.69" y1="43.15" x2="372.53" y2="43.15" gradientUnits="userSpaceOnUse"><stop offset="0" stop-color="#4a4292"/><stop offset="1" stop-color="#342b5a"/></linearGradient><linearGradient id="linear-gradient-2" x1="150.27" y1="111.91" x2="279.12" y2="111.91" gradientUnits="userSpaceOnUse"><stop offset="0" stop-color="#e0dfff"/><stop offset="1" stop-color="#a6a2f6"/></linearGradient><linearGradient id="linear-gradient-3" y1="218.54" x2="141.67" y2="218.54" gradientUnits="userSpaceOnUse"><stop offset="0" stop-color="#827fda"/><stop offset="1" stop-color="#625eab"/></linearGradient><linearGradient id="linear-gradient-4" x1="97.03" y1="230.28" x2="268.64" y2="230.28" xlink:href="#linear-gradient-2"/><linearGradient id="linear-gradient-5" x1="226.68" y1="237.45" x2="226.68" y2="29.63" gradientUnits="userSpaceOnUse"><stop offset="0" stop-color="#00abff"/><stop offset="1" stop-color="#3463ea"/></linearGradient><linearGradient id="linear-gradient-6" x1="0" y1="148.52" x2="272.95" y2="148.52" xlink:href="#linear-gradient"/></defs><title>Georges</title><g id="Layer_2" data-name="Layer 2"><g id="Layer_1-2" data-name="Layer 1"><path class="cls-1" d="M331.85,86.3a71,71,0,0,1,40.68-53.42,89.83,89.83,0,0,0-118.84-18.1A129.53,129.53,0,0,1,331.85,86.3Z"/><path class="cls-2" d="M246.86,60.71c-3.85-6.92-6.47-12.27-6.53-15.24h0s0-.07,0-.11c0-16.66,4.28-21.51,13.31-30.54h0c-.71.64-8.38,7.49-19.29,17.17-6,5.31-13,11.46-20.29,17.9-24.89,21.85-54.05,47-63.76,53.66h0c5.45-3.56,10.65-6.76,15.66-9.56A67,67,0,0,1,203.3,81.17c.75,0,1.5-.06,2.25-.06,2.79,0,5.46.14,8,.37,40.49,3.66,56.53,34.84,59,60,0,.08,0,.17,0,.25q.13,1.38.21,2.73c0,.28,0,.57,0,.85,0,1.06.08,2.11.08,3.14a65.13,65.13,0,0,1-5,24.05C262.06,187,251.14,201,235.31,209a67.7,67.7,0,0,0,24.75-20.85,118.43,118.43,0,0,0,10.2-14.65c7-12.06,8.86-22,8.86-32.84C279.12,113.46,257.92,80.58,246.86,60.71Z"/><path class="cls-3" d="M97,193.92a152.19,152.19,0,0,0-22.88-1.84C37.07,192.07,0,204.71,0,204.71s29.14-5.9,43.81-5.9c31,0,62,26.35,97.86,46.2A129.72,129.72,0,0,1,97,193.92Z"/><path class="cls-4" d="M244.73,256.89c-65.9,0-78.45-45.77-133.77-60.38-4.62-1-9.26-1.88-13.94-2.59A129.72,129.72,0,0,0,141.67,245c21.7,12,45.19,21.63,71.56,21.63q1.6,0,3.19,0l1.15,0,2-.08,1.36-.08,1.76-.11,1.35-.11,1.82-.16,1.14-.12,2.27-.26.6-.07a128.26,128.26,0,0,0,38.77-11.4l-.28,0A106,106,0,0,1,244.73,256.89Z"/><path class="cls-5" d="M342.38,136a129,129,0,0,0-6-37.74q-1.95-6.12-4.47-12a129.53,129.53,0,0,0-78.16-71.52l-.06,0c-9,9-13.31,13.88-13.31,30.54,0,0,0,.08,0,.11.06,3,2.68,8.32,6.53,15.24,11.06,19.87,32.26,52.75,32.26,80,0,10.82-1.89,20.78-8.86,32.84a118.43,118.43,0,0,1-10.2,14.65A67.7,67.7,0,0,1,235.31,209a63.84,63.84,0,0,1-22.74,6.56l-.72.06c-.87.08-1.74.16-2.63.2-1.22.07-2.44.1-3.67.1-16.91,0-33.4-3.46-49.85-7.75-14.85-3.87-29.67-8.4-44.73-11.67,55.32,14.62,67.87,60.38,133.77,60.38a106,106,0,0,0,23.62-2.68l.43-.1A129,129,0,0,0,342.4,137.47C342.4,137,342.38,136.49,342.38,136Z"/><path class="cls-6" d="M272.87,145.38c0-.28,0-.57,0-.85-.05-.92-.12-1.83-.21-2.73l0-.25c-2.47-25.21-18.51-56.39-59-60v.12a68,68,0,0,0-8-.49c-.75,0-1.5,0-2.25.06A67,67,0,0,0,165.93,94c-5,2.8-10.21,6-15.66,9.56l0,0c-18.53,12.1-39.86,28.28-65.55,46.48-24,17-51.79,35.77-84.68,54.64,0,0,37.07-12.64,74.14-12.64A152.19,152.19,0,0,1,97,193.92c4.67.71,9.32,1.59,13.94,2.59,15.06,3.27,29.88,7.8,44.73,11.67,16.45,4.28,32.94,7.75,49.85,7.75,1.24,0,2.46,0,3.67-.1.88,0,1.76-.12,2.63-.2l.72-.06A66.94,66.94,0,0,0,235.31,209c15.83-8,26.75-22,32.6-36.43a65.13,65.13,0,0,0,5-24.05C273,147.47,272.92,146.42,272.87,145.38Z"/><circle class="cls-7" cx="288.06" cy="55.17" r="11.48"/></g></g></svg>