<svg xmlns="http://www.w3.org/2000/svg" xmlns:xlink="http://www.w3.org/1999/xlink" viewBox="0 0 304.01 456.02"><defs><style>.cls-1{fill:url(#linear-gradient);}.cls-2{fill:url(#linear-gradient-2);}.cls-3{fill:url(#linear-gradient-3);}.cls-4{fill:url(#linear-gradient-4);}.cls-5{fill:url(#linear-gradient-5);}.cls-6{fill:url(#linear-gradient-6);}.cls-7{fill:#fff;}</style><linearGradient id="linear-gradient" y1="99.19" x2="152.01" y2="99.19" gradientUnits="userSpaceOnUse"><stop offset="0" stop-color="#4a4292"/><stop offset="1" stop-color="#342b5a"/></linearGradient><linearGradient id="linear-gradient-2" x1="42.72" y1="76" x2="260.47" y2="76" gradientUnits="userSpaceOnUse"><stop offset="0" stop-color="#827fda"/><stop offset="1" stop-color="#625eab"/></linearGradient><linearGradient id="linear-gradient-3" x1="76" y1="408.18" x2="76" y2="77.34" gradientUnits="userSpaceOnUse"><stop offset="0" stop-color="#9134e8"/><stop offset="1" stop-color="#ff4980"/></linearGradient><linearGradient id="linear-gradient-4" x1="152.01" y1="169.67" x2="235.16" y2="169.67" gradientUnits="userSpaceOnUse"><stop offset="0" stop-color="#e0dfff"/><stop offset="1" stop-color="#a6a2f6"/></linearGradient><linearGradient id="linear-gradient-5" x1="83.15" y1="304.01" x2="152.01" y2="304.01" xlink:href="#linear-gradient"/><linearGradient id="linear-gradient-6" x1="228.01" y1="408.18" x2="228.01" y2="77.34" xlink:href="#linear-gradient-3"/></defs><title>Hector</title><g id="Layer_2" data-name="Layer 2"><g id="Layer_1-2" data-name="Layer 1"><path class="cls-1" d="M92.23,94.23,42.72,46.37A151.49,151.49,0,0,0,0,152H152Z"/><path class="cls-2" d="M152,0A151.55,151.55,0,0,0,42.72,46.37L92.23,94.23,152,152l48.71-47.82a14.44,14.44,0,1,1,20.61-20.23l39.14-38.43A151.53,151.53,0,0,0,152,0Z"/><path class="cls-3" d="M152,235.16V152a152,152,0,0,0,0,304V372.86a68.85,68.85,0,0,1,0-137.71Z"/><path class="cls-4" d="M220.53,104.92a14.41,14.41,0,0,1-19.82-.74L152,152v83.15a83.14,83.14,0,0,0,68.53-130.24Z"/><path class="cls-5" d="M84.94,288.44A68.83,68.83,0,0,0,152,372.86V235.16A68.86,68.86,0,0,0,84.94,288.44Z"/><path class="cls-6" d="M260.47,45.52,221.33,83.95a14.42,14.42,0,0,1-.79,21A83.15,83.15,0,0,1,152,235.16V304A152,152,0,0,0,260.47,45.52Z"/><path class="cls-7" d="M221.33,83.95a14.42,14.42,0,1,0,4.14,10.12A14.4,14.4,0,0,0,221.33,83.95Z"/></g></g></svg>
